<mxfile host="app.diagrams.net" modified="2023-11-20T11:36:13.469Z" agent="Mozilla/5.0 (Macintosh; Intel Mac OS X 10_15_7) AppleWebKit/537.36 (KHTML, like Gecko) Chrome/97.0.4692.71 Safari/537.36" version="22.1.3" etag="KOtzyYyTqOQCzzr6h6rR" type="github">
  <diagram name="Page-1" id="mu1Re8fCAMx7Dj-W_8PD">
    <mxGraphModel>
      <root>
        <mxCell id="0" />
        <mxCell id="1" parent="0" />
      </root>
    </mxGraphModel>
  </diagram>
</mxfile>
